<svg width="82" height="24" viewBox="0 0 82 24" fill="none" xmlns="http://www.w3.org/2000/svg">
<path fill-rule="evenodd" clip-rule="evenodd" d="M21.3269 0.074707H25.0939V23.3324H21.3269V0.074707ZM38.1972 15.9588C38.1972 19.5621 35.249 19.8897 34.2663 19.8897C31.9733 19.8897 31.6457 17.7605 31.6457 16.614V7.60569H27.8786V16.4502C27.8786 18.5794 28.5338 20.5448 29.8441 21.6913C30.9906 22.8378 32.4647 23.3292 34.2663 23.3292C35.5766 23.3292 37.2145 23.0016 38.1972 22.0189V23.3292H41.9643V7.60569H38.1972V15.9588ZM45.5675 1.87374H49.3345V7.60627H52.1189V11.2096H49.3345V23.3298H45.5675V11.2096H42.7831V7.60627H45.5675V1.87374ZM63.9118 18.5823C63.0928 19.2375 61.9463 19.7288 60.7998 19.7288C58.1793 19.7288 56.3776 17.7634 56.3776 15.1428C56.3776 12.5222 58.1793 10.7206 60.7998 10.7206C61.9463 10.7206 63.0928 11.0481 63.9118 11.8671L64.4031 12.3584L67.0237 9.90162L66.3686 9.41026C64.8945 8.09997 62.9291 7.28104 60.7998 7.28104C56.2138 7.28104 52.7743 10.7206 52.7743 15.3066C52.7743 19.8926 56.2138 23.3321 60.7998 23.3321C62.9291 23.3321 64.8945 22.5132 66.3686 21.2029L67.0237 20.7115L64.4031 18.0909L63.9118 18.5823ZM76.1954 7.28132C77.997 7.28132 79.1435 7.77268 80.29 8.91918C81.4365 10.0657 81.9279 12.0311 81.9279 14.1604V23.1686H78.1608V13.9966C78.1608 13.9278 78.1614 13.8555 78.162 13.7803V13.7802C78.1716 12.6021 78.187 10.7208 76.0316 10.7208C75.0489 10.7208 72.5921 11.0484 72.5921 14.6517V23.3324H68.825V0.074707H72.5921V8.59161C73.5748 7.60889 74.8851 7.28132 76.1954 7.28132ZM60.6355 17.9264C62.0829 17.9264 63.2561 16.7531 63.2561 15.3058C63.2561 13.8585 62.0829 12.6852 60.6355 12.6852C59.1882 12.6852 58.015 13.8585 58.015 15.3058C58.015 16.7531 59.1882 17.9264 60.6355 17.9264ZM10.681 19.7287C12.8102 19.7287 14.7757 18.9098 16.086 17.5995L16.5773 17.1082L19.0341 19.565L18.5428 20.0563C16.5773 22.1855 13.6292 23.332 10.681 23.332C4.62092 23.332 0.0349121 18.4185 0.0349121 12.0308C0.0349121 5.6431 4.62092 0.729503 10.8448 0.893289C13.793 0.893289 16.5773 2.0398 18.7065 4.16902L19.1979 4.66038L16.7411 7.11718L16.2497 6.62582C14.7757 5.15174 12.8102 4.33281 10.8448 4.33281C6.58636 4.33281 3.63821 7.60854 3.63821 12.0308C3.63821 16.453 6.58636 19.7287 10.681 19.7287Z" fill="white"/>
</svg>
