<svg width="80" height="27" viewBox="0 0 80 27" fill="none" xmlns="http://www.w3.org/2000/svg">
<path d="M19.6976 9.25741H10.4523V11.9892H17.0041C16.6765 15.8501 13.4734 17.4892 10.4523 17.4892C6.59396 17.4892 3.20885 14.4296 3.20885 10.168C3.20885 6.01571 6.41197 2.81043 10.4523 2.81043C13.5462 2.81043 15.4025 4.77731 15.4025 4.77731L17.3317 2.77401C17.3317 2.77401 14.8566 0.0422363 10.3795 0.0422363C4.66481 0.07866 0.224121 4.923 0.224121 10.1316C0.224121 15.2673 4.37362 20.2574 10.5251 20.2574C15.9121 20.2574 19.8796 16.5421 19.8796 11.0786C19.8796 9.91304 19.6976 9.25741 19.6976 9.25741ZM27.2687 7.29054C23.4831 7.29054 20.7532 10.2409 20.7532 13.7375C20.7532 17.2342 23.374 20.2574 27.3051 20.2574C30.8358 20.2574 33.7477 17.5256 33.7477 13.8104C33.7841 9.47596 30.399 7.29054 27.2687 7.29054ZM27.3051 9.84019C29.1614 9.84019 30.945 11.3336 30.945 13.7739C30.945 16.1415 29.1978 17.7077 27.3051 17.7077C25.2303 17.7077 23.5923 16.0686 23.5923 13.7739C23.5923 11.5157 25.2303 9.84019 27.3051 9.84019ZM41.4279 7.29054C37.6424 7.29054 34.9125 10.2409 34.9125 13.7375C34.9125 17.2342 37.5332 20.2574 41.4643 20.2574C44.995 20.2574 47.9069 17.5256 47.9069 13.8104C47.9433 9.47596 44.5582 7.29054 41.4279 7.29054ZM41.4643 9.84019C43.3207 9.84019 45.1042 11.3336 45.1042 13.7739C45.1042 16.1415 43.3571 17.7077 41.4643 17.7077C39.3896 17.7077 37.7516 16.0686 37.7516 13.7739C37.788 11.5157 39.3896 9.84019 41.4643 9.84019ZM55.3324 7.29054C51.838 7.29054 49.1081 10.3501 49.1081 13.7739C49.1081 17.6713 52.2748 20.2574 55.2596 20.2574C57.1159 20.2574 58.0987 19.5289 58.8267 18.6911V19.966C58.8267 22.1878 57.4799 23.5355 55.4052 23.5355C53.4396 23.5355 52.4204 22.0785 52.0928 21.2408L49.6177 22.2971C50.4913 24.1547 52.2748 26.1216 55.4416 26.1216C58.8995 26.1216 61.5566 23.9361 61.5566 19.3468V7.6912H58.8267V8.78391C57.9895 7.87332 56.8611 7.29054 55.3324 7.29054ZM55.5872 9.84019C57.2979 9.84019 59.0451 11.2971 59.0451 13.7739C59.0451 16.3236 57.2979 17.7077 55.5508 17.7077C53.6944 17.7077 51.9836 16.2143 51.9836 13.8104C51.9472 11.2971 53.7672 9.84019 55.5872 9.84019ZM73.6047 7.25411C70.3288 7.25411 67.5625 9.87662 67.5625 13.7375C67.5625 17.817 70.62 20.2574 73.9323 20.2574C76.6622 20.2574 78.373 18.764 79.3558 17.4163L77.099 15.9229C76.5166 16.8335 75.5339 17.7077 73.9323 17.7077C72.1124 17.7077 71.2752 16.7243 70.7656 15.7408L79.465 12.1349L79.0282 11.0786C78.1546 9.00245 76.189 7.25411 73.6047 7.25411ZM73.7139 9.76735C74.9151 9.76735 75.7523 10.3865 76.1162 11.1514L70.3288 13.5918C70.074 11.6978 71.8576 9.76735 73.7139 9.76735ZM63.4494 19.8567H66.2885V0.770709H63.4494V19.8567Z" fill="white"/>
</svg>
