<svg width="103" height="31" viewBox="0 0 103 31" fill="none" xmlns="http://www.w3.org/2000/svg">
<path fill-rule="evenodd" clip-rule="evenodd" d="M17.0153 3.71544C17.0153 1.97164 18.3574 0.567871 20.0245 0.567871C21.6915 0.567871 23.0336 1.97164 23.0336 3.71544V11.463C23.0336 13.2068 21.6915 14.6106 20.0245 14.6106C18.3574 14.6106 17.0153 13.2068 17.0153 11.463V3.71544ZM56.5725 24.4555L53.8178 24.4505L53.8167 24.4506C53.5268 24.4405 53.3803 24.3063 53.3483 24.0303C53.3163 23.7542 53.2167 9.17128 53.3648 2.84604C53.3653 2.7338 53.4456 2.6371 53.5574 2.61403C54.1637 2.45966 56.0555 2.4383 56.7193 2.52617C56.8661 2.54492 56.9592 2.62396 56.9681 2.83731C57.0727 5.28997 57.1443 20.8311 56.9784 24.0954C56.9762 24.1456 56.9639 24.1948 56.9422 24.2402C56.9205 24.2855 56.89 24.326 56.8523 24.3593C56.7754 24.4271 56.6748 24.4617 56.5725 24.4555ZM45.2472 8.9177C41.3922 8.9177 39.2732 10.9126 39.2732 13.7705L39.2967 13.7682C39.2967 16.7327 41.7092 17.7036 44.7089 18.2593C46.5753 18.608 47.7561 19.0886 47.7725 19.913C47.7918 20.8489 46.8906 21.4033 45.4008 21.4384L45.0142 21.436C43.347 21.3807 41.9225 20.5264 41.0493 19.9932C40.8003 19.8401 40.3191 19.8788 40.1365 20.1236C39.8083 20.5001 39.3923 21.2175 39.1445 21.8424C38.9289 22.3266 39.3323 22.7306 39.368 22.7607C40.4274 23.6602 42.4032 24.5837 45.1887 24.6388C49.4011 24.7127 51.5711 22.3027 51.5711 19.6368C51.5711 16.498 49.225 15.6034 46.1205 15.0805C44.452 14.8003 43.0759 14.4491 43.1013 13.4756C43.1044 13.3299 43.136 13.1834 43.1946 13.0365C43.4857 12.2977 44.3077 11.9614 45.2932 11.94C45.5841 11.9338 45.8713 11.9487 46.1458 11.9776C47.2073 12.0887 48.3726 12.6703 49.1212 13.044L49.2094 13.088C49.4136 13.1909 49.8131 13.2274 49.9701 12.9425L50.8191 11.1974C50.9481 10.8997 50.8404 10.5539 50.5637 10.3781C49.5209 9.65545 47.5959 8.9177 45.2472 8.9177ZM62.4319 20.0571C62.4881 18.4323 64.4271 17.8641 66.5422 17.8365L66.5419 17.8378C67.1086 17.8603 67.4418 17.9181 67.8912 18.1036C67.9819 18.1403 68.1873 18.3356 68.1898 18.4362C68.2001 18.9166 68.1746 20.0393 67.9958 20.3405C67.5145 21.1499 66.4218 21.7608 64.9897 21.8962C63.4951 21.9789 62.4319 21.3454 62.4319 20.0571ZM65.5808 9.14138C62.4404 9.06987 60.4938 10.4235 59.5045 11.2929L59.4997 11.2681C59.372 11.381 59.2723 11.5605 59.3426 11.7762C59.4129 11.9919 60.3268 13.3397 60.6893 13.8011C60.7635 13.8951 60.9918 13.9565 61.1387 13.8726C61.2038 13.8352 61.2785 13.7913 61.3615 13.7424L61.3616 13.7424C62.0728 13.3242 63.3933 12.5477 64.5112 12.4613C64.836 12.4382 65.1622 12.4467 65.4852 12.4864C67.0553 12.6782 67.8019 13.3871 67.9935 14.2678C68.0699 14.6141 68.0878 15.343 68.0828 15.7255C68.0803 15.8411 67.9104 15.8886 67.8275 15.8561C66.5279 15.348 64.8099 15.1498 63.2857 15.373C60.9063 15.7219 58.7402 17.2034 58.7325 20.2055C58.7249 23.1375 61.2777 24.6178 63.8385 24.6178C65.5236 24.6178 67.1088 24.1159 68.0764 23.1122C68.1149 23.0871 68.2641 23.0821 68.2679 23.2376L68.2896 24.0129C68.2947 24.1997 68.3369 24.3765 68.7006 24.3941L71.6699 24.3878C71.7144 24.3956 71.7601 24.3927 71.8033 24.3794C71.8464 24.366 71.8858 24.3425 71.918 24.3108C71.9828 24.2468 72.0117 24.1556 71.9953 24.0666C72.0308 22.7643 72.1685 17.5356 72.0855 15.6612C71.8827 11.1261 69.7038 9.22544 65.5808 9.14138ZM81.1857 9.1148C76.3643 9.1474 73.3953 12.6801 73.4208 16.8679L73.4094 16.8528C73.4337 21.0555 76.03 24.6735 81.2635 24.636C83.763 24.6222 85.6521 23.5997 86.63 22.383C86.7156 22.2775 86.8916 22.014 86.6554 21.7454C86.2942 21.2727 85.6445 20.57 85.1914 20.1147C84.9603 19.9365 84.7508 19.8514 84.5492 20.0244C83.9174 20.5952 82.7202 21.2926 81.4856 21.2626C79.1115 21.2086 77.4698 19.6944 77.452 16.9344C77.4316 14.06 79.16 12.4969 81.4781 12.4969C82.7558 12.4969 84.0551 13.0441 84.7382 13.4919C84.7724 13.5144 84.8061 13.5378 84.8391 13.5608C85.0425 13.7026 85.2238 13.8289 85.3917 13.6175C85.9039 12.9486 86.3575 12.2367 86.7473 11.4897C86.8022 11.3404 86.8406 11.2162 86.7641 11.0681C86.3785 10.4358 84.1931 9.09615 81.1857 9.1148ZM102.063 23.8958C101.257 24.0763 98.6354 24.4328 98.3903 24.4505L98.3814 24.4724C98.259 24.4762 98.0979 24.4686 97.9601 24.2754L96.1309 21.6775C95.7531 21.1272 95.3638 20.552 95.0056 20.0227L95.0054 20.0223C94.4199 19.1569 93.9175 18.4144 93.6838 18.1046C93.6073 18.0019 93.4873 17.9968 93.4107 18.0695L92.0806 19.4397C92.0166 19.4924 91.9783 19.6905 91.9783 19.6905L91.9221 24.1569C91.9221 24.1569 91.876 24.4164 91.5009 24.4164C90.7374 24.4303 89.105 24.4327 88.445 24.3952C88.2797 24.3834 88.1511 24.2493 88.1488 24.0865C88.0569 21.758 87.8399 5.11654 87.993 2.84965C88.0318 2.66338 88.182 2.51944 88.3721 2.48584L91.3783 2.49216C91.5074 2.49818 91.7371 2.63991 91.7421 2.82818L91.8658 14.878C91.867 15.1476 91.9767 15.1892 92.1683 15.0011L97.9251 9.38683C98.1882 9.13597 98.5329 9.1146 98.8188 9.17358C99.4969 9.31541 100.689 9.58523 101.427 9.80089C101.807 9.91273 102.078 10.1196 101.628 10.5963L96.6424 15.5093C96.5404 15.6096 96.5351 15.7349 96.6296 15.8605L99.3549 19.2942L102.223 23.522C102.333 23.6863 102.262 23.8506 102.063 23.8958ZM8.99109 19.7652C8.99109 18.0214 10.3332 16.6177 12.0002 16.6177C13.6673 16.6177 15.0094 18.0214 15.0094 19.7652V27.5128C15.0094 29.2565 13.6673 30.6604 12.0002 30.6604C10.3332 30.6604 8.99109 29.2565 8.99109 27.5128V19.7652ZM17.0153 19.6268C17.0153 21.2939 18.4191 22.636 20.1628 22.636H27.9106C29.6544 22.636 31.0581 21.2939 31.0581 19.6268C31.0581 17.9598 29.6543 16.6177 27.9106 16.6177H20.1628C18.419 16.6177 17.0153 17.9598 17.0153 19.6268ZM0.966797 11.6022C0.966797 13.2692 2.37056 14.6113 4.11436 14.6113H11.8619C13.6057 14.6113 15.0095 13.2692 15.0095 11.6022C15.0095 9.9351 13.6057 8.59302 11.8619 8.59302H4.11436C2.37056 8.59302 0.966797 9.9351 0.966797 11.6022ZM17.0153 27.6508C17.0153 29.3178 18.3574 30.6599 20.0245 30.6599C21.6915 30.6599 23.0336 29.3178 23.0336 27.6508C23.0336 25.9837 21.6915 24.6416 20.0245 24.6416H17.0153V27.6508ZM25.0399 14.6113H28.0491C29.7161 14.6113 31.0582 13.2692 31.0582 11.6022C31.0582 9.9351 29.7161 8.59302 28.0491 8.59302C26.382 8.59302 25.0399 9.9351 25.0399 11.6022V14.6113ZM3.97594 16.6177H6.98509V19.6268C6.98509 21.2939 5.64301 22.636 3.97594 22.636C2.30888 22.636 0.966797 21.2939 0.966797 19.6268C0.966797 17.9598 2.30888 16.6177 3.97594 16.6177ZM15.0094 6.58618V3.57702C15.0094 1.90995 13.6673 0.567871 12.0002 0.567871C10.3332 0.567871 8.99109 1.90995 8.99109 3.57702C8.99109 5.24409 10.3332 6.58618 12.0002 6.58618H15.0094Z" fill="white"/>
</svg>
