<svg width="52" height="25" viewBox="0 0 52 25" fill="none" xmlns="http://www.w3.org/2000/svg">
<path d="M4.50314 12.2287C4.50314 16.6444 8.04403 20.2363 12.4091 20.2363H19.7943C20.2574 20.2363 20.618 19.7949 20.618 19.4054V4.73137C20.6184 4.28562 20.7934 3.85825 21.1046 3.54306C21.4158 3.22787 21.8378 3.0506 22.2778 3.05016C22.5659 3.04981 22.849 3.12556 23.0993 3.26993C23.3496 3.4143 23.5584 3.6223 23.7051 3.87338L32.9822 20.0741C33.0612 20.203 33.1794 20.3025 33.319 20.3576C33.4586 20.4126 33.6121 20.4203 33.7564 20.3794C33.9007 20.3386 34.028 20.2513 34.1191 20.1309C34.2103 20.0105 34.2603 19.8633 34.2618 19.7116V4.73137C34.2623 4.28562 34.4373 3.85825 34.7485 3.54306C35.0597 3.22787 35.4816 3.0506 35.9217 3.05016C36.2097 3.04981 36.4929 3.12556 36.7432 3.26993C36.9935 3.4143 37.2023 3.6223 37.349 3.87338L46.6168 20.073C46.6958 20.2019 46.8139 20.3014 46.9535 20.3564C47.0931 20.4115 47.2465 20.4192 47.3907 20.3784C47.535 20.3376 47.6623 20.2505 47.7535 20.1302C47.8447 20.0098 47.8948 19.8627 47.8964 19.7111V0.28916H44.9858V11.8496L39.541 2.35936C38.7713 1.02631 37.3114 0.184326 35.7572 0.184326C33.3232 0.184326 31.3447 2.18445 31.3447 4.64971V11.8502L25.8999 2.35991C25.128 1.02741 23.6681 0.185982 22.1155 0.185982C19.6816 0.185982 17.703 2.18611 17.703 4.65136V16.4811C17.7047 16.9114 17.3849 17.2866 16.9197 17.2877H12.4309C11.1061 17.2877 9.83546 16.7547 8.89865 15.8058C7.96184 14.8569 7.43554 13.57 7.43554 12.2281C7.43554 10.8862 7.96184 9.59928 8.89865 8.65041C9.83546 7.70155 11.1061 7.16848 12.4309 7.16848H16.1908V4.22099H12.3993C8.04947 4.22099 4.50314 7.80742 4.50314 12.2287ZM48.865 0.290264V19.7122C48.8646 20.1579 48.6896 20.5853 48.3784 20.9005C48.0672 21.2157 47.6452 21.3929 47.2052 21.3934C46.9172 21.3938 46.6341 21.3181 46.3838 21.1738C46.1335 21.0296 45.9246 20.8217 45.7779 20.5707L36.5089 4.36997C36.43 4.24107 36.3118 4.14162 36.1723 4.08655C36.0327 4.03148 35.8793 4.02377 35.735 4.06457C35.5908 4.10537 35.4635 4.19249 35.3723 4.31283C35.2811 4.43317 35.2309 4.58023 35.2293 4.73192V19.7122C35.2289 20.1579 35.0539 20.5853 34.7427 20.9005C34.4315 21.2157 34.0096 21.3929 33.5695 21.3934C33.2809 21.3938 32.9973 21.3176 32.7468 21.1724C32.4964 21.0272 32.2879 20.818 32.1422 20.5657L22.8656 4.36997C22.7474 4.16582 22.5159 4.03891 22.2757 4.03891C22.0929 4.03949 21.9179 4.11327 21.7886 4.24415C21.6594 4.37502 21.5866 4.55236 21.586 4.73744V19.4054C21.586 20.371 20.7482 21.219 19.7927 21.219H12.4086C10.0552 21.2167 7.79882 20.2687 6.13472 18.5832C4.47061 16.8977 3.5347 14.6123 3.53239 12.2287C3.5347 9.84499 4.47061 7.55962 6.13472 5.8741C7.79882 4.18859 10.0552 3.24065 12.4086 3.23831H16.2001V0.290264H12.4184C5.9086 0.290264 0.631042 5.63515 0.631042 12.2292C0.631042 18.8233 5.90315 24.1682 12.4184 24.1682H19.8739C22.6979 24.1698 24.5141 22.4936 24.5043 19.4021V12.5923L29.949 22.0825C30.7188 23.4156 32.1787 24.2575 33.7329 24.2575C36.1668 24.2575 38.1454 22.2574 38.1454 19.7927V12.5923L43.5902 22.0825C44.3605 23.4156 45.8204 24.2575 47.374 24.2575C49.808 24.2575 51.7865 22.2574 51.7865 19.7927V0.290264H48.865Z" fill="white"/>
</svg>
