<svg width="139" height="35" viewBox="0 0 139 35" fill="none" xmlns="http://www.w3.org/2000/svg">
<path fill-rule="evenodd" clip-rule="evenodd" d="M21.0483 12.7502H33.6136L23.4498 20.2158L27.3309 32.2906L17.1671 24.825L6.99119 32.2906L10.8845 20.2158L0.708557 12.7379L13.2738 12.7502L17.1671 0.663086L21.0483 12.7502ZM50.7274 12.7493H36.8158H36.8037V15.3726H42.2495V30.1199H45.2574V15.3726H50.7274V12.7493ZM52.7044 17.5424H50.1331H50.121V30.1076H52.862V24.1254C52.862 23.4266 52.9469 22.8137 53.1289 22.2743C53.3108 21.7349 53.5534 21.2936 53.8566 20.9258C54.1598 20.5703 54.5115 20.2884 54.9239 20.1045C55.3363 19.9206 55.7729 19.8226 56.2338 19.8226C56.4279 19.8226 56.6219 19.8348 56.8281 19.8593C57.0343 19.8839 57.2284 19.9084 57.4224 19.9451V17.2727C57.3511 17.2662 57.2833 17.2561 57.2172 17.2463C57.1594 17.2378 57.1029 17.2294 57.0464 17.2237C56.9251 17.2114 56.6947 17.1992 56.3793 17.1992C55.967 17.1992 55.5546 17.285 55.1544 17.4444C54.7541 17.616 54.3902 17.8244 54.0628 18.0941C53.7353 18.3515 53.4563 18.658 53.2259 18.9767C52.9955 19.2954 52.8378 19.6264 52.7529 19.9697H52.7044V17.5424ZM67.3315 30.1199H70.0241V17.5547H67.283V24.8486C67.283 25.339 67.2345 25.7926 67.1253 26.2094C67.0162 26.6262 66.8464 26.9939 66.6038 27.2881C66.3734 27.5946 66.058 27.8275 65.6699 28.0114C65.2818 28.1953 64.8088 28.2811 64.2266 28.2811C63.4746 28.2811 62.8803 28.0482 62.4679 27.5946C62.0434 27.141 61.8372 26.3565 61.8372 25.2532V17.5424H59.0962V25.5229C59.0962 27.1778 59.46 28.4159 60.1877 29.2373C60.9155 30.0586 62.1041 30.4631 63.7414 30.4631C64.4328 30.4631 65.112 30.267 65.779 29.887C66.4461 29.507 66.9434 29.0043 67.283 28.3669H67.3315V30.1199ZM75.6032 27.7907C75.0817 27.4597 74.7785 26.8958 74.6936 26.0868V26.1113H71.9283C71.9525 26.8591 72.0981 27.5088 72.377 28.0482C72.656 28.5875 73.0441 29.0411 73.5293 29.4089C74.0144 29.7644 74.5966 30.0341 75.2636 30.218C75.9307 30.4018 76.6584 30.4877 77.4468 30.4877C78.0896 30.4877 78.7446 30.4141 79.3995 30.267C80.0545 30.1199 80.6609 29.8747 81.1946 29.556C81.7282 29.2373 82.1648 28.8082 82.5045 28.2933C82.8441 27.7662 83.0138 27.141 83.0138 26.3932C83.0138 25.7803 82.8926 25.2532 82.6621 24.8364C82.4317 24.4196 82.1285 24.0763 81.7525 23.7944C81.3765 23.5124 80.952 23.2918 80.4668 23.1324C79.9817 22.973 79.4965 22.8259 78.9993 22.7156C78.8896 22.6919 78.7804 22.6681 78.6718 22.6444C78.2762 22.5583 77.8881 22.4738 77.5074 22.3969C77.0223 22.2988 76.5978 22.1762 76.2218 22.0414C75.8458 21.8943 75.5426 21.7227 75.3122 21.5143C75.0817 21.3059 74.9604 21.0362 74.9604 20.6929C74.9604 20.411 75.0453 20.1903 75.203 20.0187C75.3728 19.8471 75.5669 19.7122 75.7973 19.6264C76.0399 19.5406 76.2825 19.4793 76.5493 19.4425C76.8161 19.4058 77.0466 19.3935 77.2406 19.3935C77.8471 19.3935 78.3928 19.5038 78.8659 19.7367C79.3389 19.9574 79.63 20.411 79.7634 21.0729H82.6257C82.5408 20.3742 82.3468 19.7735 82.0314 19.2832C81.7161 18.7928 81.328 18.3883 80.8549 18.0818C80.3819 17.7631 79.8483 17.5424 79.2661 17.4076C78.6839 17.2727 78.0654 17.1992 77.4225 17.1992C76.8646 17.1992 76.2703 17.2605 75.6518 17.3708C75.0332 17.4934 74.4753 17.6895 73.9659 17.9715C73.4686 18.2534 73.0441 18.6212 72.7166 19.087C72.3892 19.5529 72.2194 20.1168 72.2194 20.8033C72.2194 21.4407 72.3285 21.9678 72.559 22.3969C72.7773 22.8259 73.0805 23.1814 73.4565 23.4511C73.8325 23.7331 74.257 23.9537 74.73 24.1131C75.203 24.2725 75.7003 24.4196 76.2097 24.5299C76.2995 24.5498 76.3889 24.5698 76.478 24.5896C76.8822 24.6797 77.2797 24.7683 77.6772 24.8486C78.1624 24.9467 78.5869 25.0693 78.9629 25.2041C79.3389 25.3512 79.6421 25.5229 79.8847 25.7558C80.1272 25.9764 80.2607 26.2706 80.2728 26.6262C80.2849 26.9817 80.2 27.2636 80.0181 27.4843C79.824 27.7049 79.5936 27.8765 79.3025 27.9869C79.0235 28.0972 78.7082 28.183 78.3807 28.2198C78.0532 28.2566 77.7622 28.2811 77.5074 28.2811C76.7676 28.2811 76.1369 28.1095 75.6032 27.7907ZM85.8156 17.5424H83.7658V19.6387H85.8398V27.0552C85.852 27.5701 85.9126 28.0359 85.9975 28.4404C86.0945 28.845 86.2522 29.176 86.5069 29.4457C86.7495 29.7154 87.1012 29.9237 87.5378 30.0586C87.9745 30.1934 88.5566 30.267 89.2844 30.267C89.5876 30.267 89.8787 30.2547 90.1698 30.218C90.3221 30.1979 90.4818 30.1814 90.6447 30.1647C90.78 30.1507 90.9176 30.1366 91.0552 30.1199V27.9746C90.8611 28.0236 90.667 28.0482 90.473 28.0604C90.2789 28.0727 90.0849 28.0727 89.8908 28.0727C89.5754 28.0727 89.345 28.0359 89.1631 27.9624C88.9811 27.8888 88.8477 27.7785 88.7628 27.6314C88.6779 27.4843 88.6173 27.3004 88.593 27.092C88.5688 26.8713 88.5566 26.6262 88.5566 26.3319V19.6142H91.0309V17.5424H88.5566V13.7667H85.8156V17.5424ZM95.567 17.5424H92.9715V34.7659H95.7125V28.4895H95.7611C95.9794 28.8205 96.2341 29.1147 96.5494 29.3721C96.8526 29.6295 97.2044 29.8379 97.5682 29.9973C97.9321 30.1567 98.3202 30.2793 98.7205 30.3528C99.1207 30.4264 99.5209 30.4631 99.9212 30.4631C100.843 30.4631 101.631 30.2793 102.311 29.9115C102.99 29.5437 103.548 29.0656 103.984 28.4527C104.421 27.8398 104.748 27.141 104.967 26.3442C105.185 25.5596 105.294 24.7383 105.294 23.8925C105.294 22.973 105.173 22.1027 104.93 21.2936C104.688 20.4845 104.336 19.7735 103.851 19.1606C103.366 18.5476 102.759 18.0696 102.032 17.7263C101.304 17.3708 100.455 17.1992 99.4724 17.1992C98.6598 17.1992 97.92 17.3586 97.2286 17.6773C96.5373 17.996 96.0036 18.5109 95.6155 19.2464H95.567V17.5424ZM102.335 22.1885C102.48 22.7279 102.553 23.2795 102.553 23.8434C102.553 24.3951 102.492 24.9344 102.383 25.4616C102.262 25.9887 102.056 26.4545 101.777 26.8713C101.498 27.2759 101.146 27.6191 100.71 27.8765C100.273 28.134 99.7514 28.2688 99.1207 28.2688C98.5628 28.2688 98.0655 28.1585 97.641 27.9256C97.2165 27.7049 96.8526 27.3984 96.5494 27.0062C96.2341 26.6139 96.0158 26.1481 95.8581 25.6087C95.7004 25.0693 95.6276 24.4809 95.6276 23.8434C95.6276 22.495 95.9187 21.4162 96.5009 20.6071C97.0831 19.798 97.9563 19.3935 99.1086 19.3935C99.6665 19.3935 100.164 19.5283 100.6 19.7735C101.025 20.0187 101.389 20.3497 101.68 20.7665C101.971 21.1833 102.189 21.6491 102.335 22.1885ZM110.134 12.7493H107.392V15.3726H110.134V12.7493ZM110.134 17.5424H107.392V30.1199H110.134V17.5424ZM115.325 12.7493H112.584V30.1199H115.325V12.7493ZM121.074 29.9605C121.85 30.2915 122.735 30.4631 123.73 30.4631C124.724 30.4631 125.61 30.2915 126.386 29.9605C127.162 29.6295 127.829 29.176 128.363 28.5875C128.897 27.9991 129.309 27.3004 129.588 26.4913C129.867 25.6822 130.012 24.7873 130.012 23.8189C130.012 22.8627 129.867 21.9801 129.588 21.171C129.309 20.3619 128.897 19.6632 128.363 19.0748C127.817 18.4986 127.162 18.0328 126.386 17.7018C125.61 17.3708 124.724 17.1992 123.73 17.1992C122.735 17.1992 121.85 17.3708 121.074 17.7018C120.297 18.0328 119.63 18.4864 119.097 19.0748C118.563 19.6632 118.151 20.3619 117.872 21.171C117.593 21.9801 117.447 22.8627 117.447 23.8189C117.447 24.7873 117.593 25.6822 117.872 26.4913C118.151 27.3004 118.563 27.9991 119.097 28.5875C119.642 29.1637 120.297 29.6295 121.074 29.9605ZM125.319 27.8765C124.87 28.134 124.336 28.2688 123.73 28.2688C123.123 28.2688 122.59 28.1462 122.141 27.8765C121.692 27.6191 121.328 27.2759 121.037 26.8591C120.746 26.4423 120.528 25.9642 120.394 25.4371C120.261 24.9099 120.188 24.3705 120.188 23.8189C120.188 23.2795 120.261 22.7524 120.394 22.213C120.54 21.6736 120.746 21.2078 121.037 20.791C121.328 20.3865 121.692 20.0432 122.141 19.7858C122.59 19.5283 123.123 19.3935 123.73 19.3935C124.336 19.3935 124.87 19.5283 125.319 19.7858C125.767 20.0432 126.131 20.3742 126.422 20.791C126.713 21.2078 126.932 21.6736 127.065 22.213C127.199 22.7524 127.271 23.2795 127.271 23.8189C127.271 24.3705 127.199 24.9099 127.065 25.4371C126.92 25.9642 126.713 26.4423 126.422 26.8591C126.131 27.2759 125.767 27.6191 125.319 27.8765ZM132.887 17.5424H130.837V19.6387H132.911V27.0552C132.923 27.5701 132.984 28.0359 133.069 28.4404C133.166 28.845 133.323 29.176 133.578 29.4457C133.821 29.7154 134.172 29.9237 134.609 30.0586C135.046 30.1934 135.628 30.267 136.356 30.267C136.659 30.267 136.95 30.2547 137.241 30.218C137.393 30.1979 137.553 30.1814 137.716 30.1647C137.851 30.1507 137.989 30.1366 138.126 30.1199V27.9746C137.932 28.0236 137.738 28.0482 137.544 28.0604C137.35 28.0727 137.156 28.0727 136.962 28.0727C136.647 28.0727 136.416 28.0359 136.234 27.9624C136.052 27.8888 135.919 27.7785 135.834 27.6314C135.749 27.4843 135.689 27.3004 135.664 27.092C135.64 26.8713 135.628 26.6262 135.628 26.3319V19.6142H138.102V17.5424H135.628V13.7667H132.887V17.5424Z" fill="white"/>
</svg>
